<svg width="32" height="32" viewBox="0 0 32 32" fill="none" xmlns="http://www.w3.org/2000/svg">
<path d="M4.80078 16.6585V15.3459C4.81448 15.2686 4.83036 15.1919 4.84077 15.1141C4.89554 14.7102 4.92512 14.3019 5.00126 13.9023C5.40278 11.7147 6.46136 9.70158 8.03582 8.13139C9.70866 6.44175 11.7189 5.37744 14.0671 4.97243C14.4895 4.89954 14.9162 4.8568 15.3407 4.7998H16.6553C16.7188 4.81296 16.7818 4.82775 16.8459 4.83762C17.4567 4.93243 18.0773 4.9834 18.6765 5.12699C24.4224 6.50424 28.1242 12.2801 26.9996 18.0949C26.5324 20.5124 25.4035 22.573 23.586 24.2287C20.9935 26.5913 17.9294 27.5334 14.4571 27.0922C12.2459 26.8111 10.2975 25.903 8.62685 24.4265C6.65876 22.6876 5.42796 20.5244 4.97497 17.9294C4.89938 17.5085 4.8572 17.0821 4.80078 16.6585ZM13.3414 17.0969C10.7894 15.2571 10.7894 11.9891 12.42 10.1301C14.1493 8.15715 17.0913 7.91655 19.0298 9.58975C19.9813 10.4118 20.5591 11.4427 20.6731 12.6966C20.8407 14.5299 20.1253 15.9816 18.6579 17.0936C21.1387 18.0999 22.7321 19.8805 23.4639 22.441C26.6655 18.8578 26.9695 12.6413 22.6318 8.68986C18.3265 4.76582 11.7069 5.37251 8.1388 10.026C4.78051 14.4049 6.06609 19.8361 8.53482 22.4201C9.26115 19.8651 10.8655 18.1031 13.3414 17.0958V17.0969ZM16.176 25.8904C16.4104 25.8712 16.8333 25.8509 17.2518 25.7988C18.9009 25.5991 20.4699 24.9744 21.8053 23.9859C22.3815 23.565 22.3722 23.5529 22.2013 22.8509C21.3994 19.5593 18.2536 17.48 14.9216 18.0423C12.2031 18.5005 10.0559 20.7184 9.68675 23.4581C9.68575 23.4977 9.69331 23.5369 9.70891 23.5733C9.72451 23.6096 9.74778 23.6421 9.77713 23.6686C11.5897 25.1297 13.6634 25.8613 16.176 25.8904ZM15.987 16.5878C17.8467 16.6009 19.3738 15.09 19.3995 13.2102C19.4247 11.3605 17.8959 9.80842 16.0287 9.7876C14.1614 9.76677 12.6216 11.2805 12.5948 13.168C12.5679 15.0297 14.1017 16.5763 15.987 16.5894V16.5878Z" fill="white"/>
</svg>
