<svg width="33" height="32" viewBox="0 0 33 32" fill="none" xmlns="http://www.w3.org/2000/svg">
<path d="M27.2651 16.0147C27.2651 18.5582 27.2697 21.1017 27.2651 23.6458C27.2651 25.2299 26.3175 26.5233 24.8896 26.8966C24.6518 26.9588 24.4078 26.9909 24.1628 26.9924C22.0697 27.0002 19.9762 27.0002 17.8823 26.9924C17.1254 26.9924 16.6293 26.2802 16.8561 25.5529C17.0022 25.0846 17.3901 24.8057 17.915 24.8043C19.4441 24.8015 20.9732 24.8015 22.5023 24.8043C23.0095 24.8043 23.5167 24.8043 24.0239 24.8043C24.7415 24.8001 25.1792 24.3518 25.1792 23.6052C25.1818 18.5348 25.1818 13.4646 25.1792 8.39466C25.1792 7.6474 24.7415 7.19766 24.0232 7.19697C21.987 7.19697 19.9507 7.19697 17.9144 7.19697C17.3004 7.19697 16.8508 6.78373 16.8056 6.19624C16.7545 5.54127 17.225 5.01232 17.8823 5.00888C19.0841 5.00199 20.2866 5.00888 21.4865 5.00888C22.3207 5.00888 23.1556 5.03368 23.9892 5.00406C25.8732 4.93519 27.3031 6.56265 27.2736 8.43806C27.2356 10.9609 27.2657 13.4878 27.2651 16.0147Z" fill="white"/>
<path d="M9.91914 17.0967C10.026 17.2145 10.0856 17.2827 10.1478 17.3488C10.8641 18.1023 11.583 18.8544 12.2973 19.6099C12.5974 19.9281 12.7101 20.3096 12.5784 20.7435C12.5259 20.9351 12.4227 21.1071 12.281 21.2396C12.1393 21.3721 11.9648 21.4597 11.7776 21.4922C11.6127 21.5316 11.4408 21.5253 11.2789 21.474C11.1169 21.4227 10.9704 21.3281 10.8536 21.1995C9.44557 19.727 8.04123 18.2501 6.6406 16.7689C6.2153 16.3171 6.22382 15.6718 6.65174 15.2186C8.0397 13.7493 9.4329 12.2848 10.8313 10.8252C11.2684 10.3686 11.9126 10.3741 12.3261 10.8142C12.7396 11.2543 12.7416 11.9099 12.3176 12.3666C11.6033 13.1352 10.8759 13.8886 10.1551 14.6483C10.0928 14.7172 10.0325 14.786 9.92176 14.9052H21.9206C22.5215 14.9052 22.9108 15.1931 23.0457 15.7317C23.0841 15.8858 23.0898 16.0469 23.0624 16.2035C23.035 16.3602 22.9753 16.5086 22.8873 16.6383C22.7994 16.7681 22.6854 16.8759 22.5535 16.9543C22.4215 17.0327 22.2748 17.0796 22.1237 17.0919C22.0182 17.0995 21.9114 17.0981 21.8052 17.0981H9.91914V17.0967Z" fill="white"/>
</svg>
