<svg width="138" height="32" viewBox="0 0 138 32" fill="none" xmlns="http://www.w3.org/2000/svg">
<path d="M55.5682 24.0914H51.9096L47.1752 18.6619H44.2264V24.0914H41.1641V7.82129C43.7251 7.82129 46.3155 7.84322 48.8948 7.84322C52.7218 7.86883 54.7487 10.4226 54.7487 13.2288C54.7487 15.4569 53.7279 17.7107 50.6437 18.3509L55.5609 23.8974L55.5682 24.0914ZM44.2264 10.7007V15.8996H48.8948C50.8449 15.8996 51.6791 14.6008 51.6791 13.2983C51.6791 11.9958 50.8193 10.7007 48.8948 10.7007H44.2264Z" fill="#2A2E56"/>
<path d="M59.0365 19.3871C59.2231 20.803 60.4524 21.8275 62.4501 21.8275C63.4928 21.8275 64.8611 21.4323 65.5124 20.7591L67.3234 22.5445C66.1161 23.7995 64.144 24.4031 62.4025 24.4031C58.4548 24.4031 56.1133 21.9665 56.1133 18.2968C56.1133 14.8175 58.4804 12.3076 62.194 12.3076C66.0246 12.3076 68.4137 14.6784 67.9747 19.3871H59.0365ZM65.2563 17.0456C65.0697 15.5602 63.9099 14.8175 62.2854 14.8175C60.7561 14.8175 59.5012 15.5492 59.0841 17.0456H65.2563Z" fill="#2A2E56"/>
<path d="M84.691 22.0576C83.874 22.8496 82.9075 23.471 81.8478 23.8856C80.7881 24.3002 79.6565 24.4996 78.5189 24.4723C72.4821 24.4723 69.9283 20.3161 69.9064 16.094C69.8844 11.8719 72.6467 7.52539 78.5189 7.52539C79.6277 7.52499 80.7257 7.74435 81.7493 8.17075C82.7729 8.59714 83.7018 9.22214 84.4825 10.0096L82.441 11.9853C81.3842 10.9813 79.9764 10.431 78.5189 10.4523C74.5931 10.4523 72.8992 13.3793 72.9248 16.094C72.9504 18.8087 74.5017 21.582 78.5189 21.582C80.0396 21.5715 81.4993 20.9829 82.6019 19.9356L84.691 22.0576Z" fill="#2A2E56"/>
<path d="M88.1115 12.6585L88.3201 13.9793C89.2018 12.5634 90.3872 12.3549 91.547 12.3549C92.6324 12.3407 93.684 12.7321 94.4959 13.4525L93.219 15.9147C92.6613 15.4094 91.9256 15.1462 91.1739 15.183C89.6884 15.183 88.3201 15.9733 88.3201 18.0843V24.0918H85.4883V12.6512L88.1115 12.6585Z" fill="#2A2E56"/>
<path d="M98.699 12.6587V18.6443C98.699 20.3858 99.6502 21.7102 101.461 21.7102C103.203 21.7102 104.388 20.2468 104.388 18.5052V12.6514H107.194V24.1176H104.666L104.48 22.5627C103.294 23.7225 102.204 24.2786 100.605 24.2786C97.8648 24.2786 95.8672 22.2115 95.8672 18.6626V12.6514L98.699 12.6587Z" fill="#2A2E56"/>
<path d="M112.797 9.43177C112.797 11.627 109.457 11.627 109.457 9.43177C109.457 7.23657 112.797 7.22559 112.797 9.43177ZM109.713 12.6111V24.0993H112.541V12.6111H109.713Z" fill="#2A2E56"/>
<path d="M123.967 12.6582V14.0009L118.698 21.3183H124.014V24.1025H114.381V22.9208L119.869 15.2376H114.798V12.6765L123.967 12.6582Z" fill="#2A2E56"/>
<path d="M128.127 19.3871C128.314 20.803 129.543 21.8275 131.537 21.8275C132.584 21.8275 133.952 21.4323 134.603 20.7591L136.433 22.5445C135.225 23.7995 133.253 24.4031 131.512 24.4031C127.564 24.4031 125.219 21.9665 125.219 18.2968C125.219 14.8175 127.59 12.3076 131.303 12.3076C135.13 12.3076 137.523 14.6784 137.08 19.3871H128.127ZM134.347 17.0456C134.161 15.5602 133.001 14.8175 131.376 14.8175C129.843 14.8175 128.592 15.5492 128.171 17.0456H134.347Z" fill="#2A2E56"/>
<path d="M24.2813 15.4555C24.0306 17.3292 23.9083 19.2178 23.9154 21.1082C24.5648 21.47 25.1367 21.9561 25.5984 22.5387C26.0842 23.1573 26.4424 23.8661 26.6521 24.6241C25.7863 24.5202 24.9155 24.4628 24.0435 24.4522C20.1251 24.3717 15.57 25.1071 10.9235 26.7059C9.58446 27.1706 6.04653 28.2901 0.5 32C2.61354 28.8362 5.18141 26.0008 8.121 23.5851C8.17222 23.4387 11.4467 15.9275 14.1395 12.3493C20.1397 4.34784 27.8448 -0.455999 33.1645 0.0342616C28.7924 1.04771 25.346 7.24184 24.2813 15.4555Z" fill="#5D68FE"/>
<path d="M6.54789 14.2188C4.17341 15.5834 2.33676 19.8677 2.15749 25.0045C2.14399 25.6776 2.17332 26.351 2.2453 27.0204L6.93937 22.5276C5.33687 19.0372 5.12101 15.7993 6.54789 14.2188Z" fill="#5D68FE"/>
</svg>
